<svg width="36" height="36" viewBox="0 0 36 36" fill="none" xmlns="http://www.w3.org/2000/svg">
<g filter="url(#filter0_d_6541_139859)">
<path fill-rule="evenodd" clip-rule="evenodd" d="M23.7747 3.75024C24.7212 3.75024 25.6662 3.88374 26.5647 4.18524C32.1012 5.98524 34.0962 12.0602 32.4297 17.3702C31.4847 20.0837 29.9397 22.5602 27.9162 24.5837C25.0197 27.3887 21.8412 29.8787 18.4197 32.0237L18.0447 32.2502L17.6547 32.0087C14.2212 29.8787 11.0247 27.3887 8.10122 24.5687C6.09122 22.5452 4.54472 20.0837 3.58472 17.3702C1.88972 12.0602 3.88472 5.98524 9.48122 4.15374C9.91622 4.00374 10.3647 3.89874 10.8147 3.84024H10.9947C11.4162 3.77874 11.8347 3.75024 12.2547 3.75024H12.4197C13.3647 3.77874 14.2797 3.94374 15.1662 4.24524H15.2547C15.3147 4.27374 15.3597 4.30524 15.3897 4.33374C15.7212 4.44024 16.0347 4.56024 16.3347 4.72524L16.9047 4.98024C17.0425 5.0537 17.1971 5.16594 17.3307 5.26295C17.4153 5.32441 17.4915 5.37975 17.5497 5.41524C17.5742 5.42968 17.5991 5.4442 17.6242 5.45884C17.7528 5.53392 17.8868 5.61213 17.9997 5.69874C19.6662 4.42524 21.6897 3.73524 23.7747 3.75024ZM27.7647 14.5502C28.3797 14.5337 28.9047 14.0402 28.9497 13.4087V13.2302C28.9947 11.1287 27.7212 9.22524 25.7847 8.49024C25.1697 8.27874 24.4947 8.61024 24.2697 9.24024C24.0597 9.87024 24.3897 10.5602 25.0197 10.7837C25.9812 11.1437 26.6247 12.0902 26.6247 13.1387V13.1852C26.5962 13.5287 26.6997 13.8602 26.9097 14.1152C27.1197 14.3702 27.4347 14.5187 27.7647 14.5502Z" fill="white"/>
</g>
<defs>
<filter id="filter0_d_6541_139859" x="-1" y="0" width="38" height="38" filterUnits="userSpaceOnUse" color-interpolation-filters="sRGB">
<feFlood flood-opacity="0" result="BackgroundImageFix"/>
<feColorMatrix in="SourceAlpha" type="matrix" values="0 0 0 0 0 0 0 0 0 0 0 0 0 0 0 0 0 0 127 0" result="hardAlpha"/>
<feOffset dy="1"/>
<feGaussianBlur stdDeviation="0.5"/>
<feComposite in2="hardAlpha" operator="out"/>
<feColorMatrix type="matrix" values="0 0 0 0 0 0 0 0 0 0 0 0 0 0 0 0 0 0 0.25 0"/>
<feBlend mode="normal" in2="BackgroundImageFix" result="effect1_dropShadow_6541_139859"/>
<feBlend mode="normal" in="SourceGraphic" in2="effect1_dropShadow_6541_139859" result="shape"/>
</filter>
</defs>
</svg>
