<svg width="36" height="36" viewBox="0 0 36 36" fill="none" xmlns="http://www.w3.org/2000/svg">
<g id="Iconly/Bold/Show">
<g id="Show" filter="url(#filter0_d_6541_136511)">
<path id="Show_2" fill-rule="evenodd" clip-rule="evenodd" d="M12.1463 18C12.1463 21.2 14.7659 23.8036 18 23.8036C21.2195 23.8036 23.839 21.2 23.839 18C23.839 14.7855 21.2195 12.1818 18 12.1818C14.7659 12.1818 12.1463 14.7855 12.1463 18ZM26.6049 9.06909C29.1659 11.0473 31.3463 13.9418 32.9122 17.5636C33.0293 17.84 33.0293 18.16 32.9122 18.4218C29.7805 25.6655 24.2049 30 18 30H17.9854C11.7951 30 6.21951 25.6655 3.0878 18.4218C2.97073 18.16 2.97073 17.84 3.0878 17.5636C6.21951 10.32 11.7951 6 17.9854 6H18C21.1024 6 24.0439 7.07636 26.6049 9.06909ZM18.0018 21.6186C20.0066 21.6186 21.6457 19.9895 21.6457 17.9968C21.6457 15.9895 20.0066 14.3604 18.0018 14.3604C17.8261 14.3604 17.6505 14.375 17.4896 14.4041C17.431 16.0041 16.114 17.2841 14.4896 17.2841H14.4164C14.3725 17.5168 14.3432 17.7495 14.3432 17.9968C14.3432 19.9895 15.9822 21.6186 18.0018 21.6186Z" fill="white"/>
</g>
</g>
<defs>
<filter id="filter0_d_6541_136511" x="2" y="6" width="32" height="26" filterUnits="userSpaceOnUse" color-interpolation-filters="sRGB">
<feFlood flood-opacity="0" result="BackgroundImageFix"/>
<feColorMatrix in="SourceAlpha" type="matrix" values="0 0 0 0 0 0 0 0 0 0 0 0 0 0 0 0 0 0 127 0" result="hardAlpha"/>
<feOffset dy="1"/>
<feGaussianBlur stdDeviation="0.5"/>
<feComposite in2="hardAlpha" operator="out"/>
<feColorMatrix type="matrix" values="0 0 0 0 0 0 0 0 0 0 0 0 0 0 0 0 0 0 0.25 0"/>
<feBlend mode="normal" in2="BackgroundImageFix" result="effect1_dropShadow_6541_136511"/>
<feBlend mode="normal" in="SourceGraphic" in2="effect1_dropShadow_6541_136511" result="shape"/>
</filter>
</defs>
</svg>
