<svg width="36" height="36" viewBox="0 0 36 36" fill="none" xmlns="http://www.w3.org/2000/svg">
<g id="fullscreens2">
<g id="fullscreens2_2" filter="url(#filter0_d_6541_136522)">
<path d="M13.6172 4.875C13.6172 5.37228 13.4196 5.84919 13.068 6.20083C12.7164 6.55246 12.2395 6.75 11.7422 6.75H6.75V11.7422C6.75 12.2395 6.55246 12.7164 6.20083 13.068C5.84919 13.4196 5.37228 13.6172 4.875 13.6172C4.37772 13.6172 3.90081 13.4196 3.54917 13.068C3.19754 12.7164 3 12.2395 3 11.7422V4.875C3 4.37772 3.19754 3.90081 3.54917 3.54917C3.90081 3.19754 4.37772 3 4.875 3H11.7422C12.2395 3 12.7164 3.19754 13.068 3.54917C13.4196 3.90081 13.6172 4.37772 13.6172 4.875ZM11.7422 29.25H6.75V24.2578C6.75 23.7605 6.55246 23.2836 6.20083 22.932C5.84919 22.5804 5.37228 22.3828 4.875 22.3828C4.37772 22.3828 3.90081 22.5804 3.54917 22.932C3.19754 23.2836 3 23.7605 3 24.2578V31.125C3 31.6223 3.19754 32.0992 3.54917 32.4508C3.90081 32.8025 4.37772 33 4.875 33H11.7422C12.2395 33 12.7164 32.8025 13.068 32.4508C13.4196 32.0992 13.6172 31.6223 13.6172 31.125C13.6172 30.6277 13.4196 30.1508 13.068 29.7992C12.7164 29.4475 12.2395 29.25 11.7422 29.25ZM31.125 22.3828C30.6277 22.3828 30.1508 22.5804 29.7992 22.932C29.4475 23.2836 29.25 23.7605 29.25 24.2578V29.25H24.2578C23.7605 29.25 23.2836 29.4475 22.932 29.7992C22.5804 30.1508 22.3828 30.6277 22.3828 31.125C22.3828 31.6223 22.5804 32.0992 22.932 32.4508C23.2836 32.8025 23.7605 33 24.2578 33H31.125C31.6223 33 32.0992 32.8025 32.4508 32.4508C32.8025 32.0992 33 31.6223 33 31.125V24.2578C33 23.7605 32.8025 23.2836 32.4508 22.932C32.0992 22.5804 31.6223 22.3828 31.125 22.3828ZM31.125 3H24.2578C23.7605 3 23.2836 3.19754 22.932 3.54917C22.5804 3.90081 22.3828 4.37772 22.3828 4.875C22.3828 5.37228 22.5804 5.84919 22.932 6.20083C23.2836 6.55246 23.7605 6.75 24.2578 6.75H29.25V11.7422C29.25 12.2395 29.4475 12.7164 29.7992 13.068C30.1508 13.4196 30.6277 13.6172 31.125 13.6172C31.6223 13.6172 32.0992 13.4196 32.4508 13.068C32.8025 12.7164 33 12.2395 33 11.7422V4.875C33 4.37772 32.8025 3.90081 32.4508 3.54917C32.0992 3.19754 31.6223 3 31.125 3Z" fill="white"/>
</g>
</g>
<defs>
<filter id="filter0_d_6541_136522" x="2" y="3" width="32" height="32" filterUnits="userSpaceOnUse" color-interpolation-filters="sRGB">
<feFlood flood-opacity="0" result="BackgroundImageFix"/>
<feColorMatrix in="SourceAlpha" type="matrix" values="0 0 0 0 0 0 0 0 0 0 0 0 0 0 0 0 0 0 127 0" result="hardAlpha"/>
<feOffset dy="1"/>
<feGaussianBlur stdDeviation="0.5"/>
<feComposite in2="hardAlpha" operator="out"/>
<feColorMatrix type="matrix" values="0 0 0 0 0 0 0 0 0 0 0 0 0 0 0 0 0 0 0.25 0"/>
<feBlend mode="normal" in2="BackgroundImageFix" result="effect1_dropShadow_6541_136522"/>
<feBlend mode="normal" in="SourceGraphic" in2="effect1_dropShadow_6541_136522" result="shape"/>
</filter>
</defs>
</svg>
