<svg width="36" height="36" viewBox="0 0 36 36" fill="none" xmlns="http://www.w3.org/2000/svg">
<g id="Full screen">
<g id="fullscreens1" filter="url(#filter0_d_6541_137656)">
<path id="Vector" d="M8.17252 6.10351H11.276C11.6876 6.10351 12.0823 5.94002 12.3733 5.64901C12.6643 5.358 12.8278 4.96331 12.8278 4.55176C12.8278 4.14021 12.6643 3.74551 12.3733 3.4545C12.0823 3.16349 11.6876 3 11.276 3H4.55176C4.14021 3 3.74551 3.16349 3.4545 3.4545C3.16349 3.74551 3 4.14021 3 4.55176V11.276C3 11.6876 3.16349 12.0823 3.4545 12.3733C3.74551 12.6643 4.14021 12.8278 4.55176 12.8278C4.96331 12.8278 5.358 12.6643 5.64901 12.3733C5.94002 12.0823 6.10351 11.6876 6.10351 11.276V8.17252L13.6037 15.6727C13.7395 15.8085 13.9008 15.9163 14.0783 15.9898C14.2558 16.0634 14.446 16.1012 14.6382 16.1012C14.8303 16.1012 15.0205 16.0634 15.198 15.9898C15.3755 15.9163 15.5368 15.8085 15.6727 15.6727C15.8085 15.5368 15.9163 15.3755 15.9898 15.198C16.0634 15.0205 16.1012 14.8303 16.1012 14.6382C16.1012 14.446 16.0634 14.2558 15.9898 14.0783C15.9163 13.9008 15.8085 13.7395 15.6727 13.6037L8.17252 6.10351Z" fill="white"/>
<path id="Vector_2" d="M15.6727 20.3172C15.5368 20.1813 15.3755 20.0736 15.198 20C15.0205 19.9265 14.8303 19.8887 14.6382 19.8887C14.446 19.8887 14.2558 19.9265 14.0783 20C13.9008 20.0736 13.7395 20.1813 13.6037 20.3172L6.10351 27.8173V24.7138C6.10351 24.3023 5.94002 23.9076 5.64901 23.6166C5.358 23.3256 4.96331 23.1621 4.55176 23.1621C4.14021 23.1621 3.74551 23.3256 3.4545 23.6166C3.16349 23.9076 3 24.3023 3 24.7138V31.4381C3 31.8497 3.16349 32.2444 3.4545 32.5354C3.74551 32.8264 4.14021 32.9899 4.55176 32.9899H11.276C11.6876 32.9899 12.0823 32.8264 12.3733 32.5354C12.6643 32.2444 12.8278 31.8497 12.8278 31.4381C12.8278 31.0266 12.6643 30.6319 12.3733 30.3409C12.0823 30.0498 11.6876 29.8864 11.276 29.8864H8.17252L15.6727 22.3862C15.8085 22.2503 15.9163 22.0891 15.9898 21.9116C16.0634 21.7341 16.1012 21.5438 16.1012 21.3517C16.1012 21.1596 16.0634 20.9693 15.9898 20.7918C15.9163 20.6143 15.8085 20.453 15.6727 20.3172V20.3172Z" fill="white"/>
<path id="Vector_3" d="M31.4482 3H24.724C24.3124 3 23.9177 3.16349 23.6267 3.4545C23.3357 3.74551 23.1722 4.14021 23.1722 4.55176C23.1722 4.96331 23.3357 5.358 23.6267 5.64901C23.9177 5.94002 24.3124 6.10351 24.724 6.10351H27.8275L20.3273 13.6037C20.1915 13.7395 20.0837 13.9008 20.0102 14.0783C19.9366 14.2558 19.8988 14.446 19.8988 14.6382C19.8988 14.8303 19.9366 15.0205 20.0102 15.198C20.0837 15.3755 20.1915 15.5368 20.3273 15.6727C20.4632 15.8085 20.6245 15.9163 20.802 15.9898C20.9795 16.0634 21.1697 16.1012 21.3618 16.1012C21.554 16.1012 21.7442 16.0634 21.9217 15.9898C22.0992 15.9163 22.2605 15.8085 22.3963 15.6727L29.8965 8.17252V11.276C29.8965 11.6876 30.06 12.0823 30.351 12.3733C30.642 12.6643 31.0367 12.8278 31.4482 12.8278C31.8598 12.8278 32.2545 12.6643 32.5455 12.3733C32.8365 12.0823 33 11.6876 33 11.276V4.55176C33 4.14021 32.8365 3.74551 32.5455 3.4545C32.2545 3.16349 31.8598 3 31.4482 3Z" fill="white"/>
<path id="Vector_4" d="M31.4482 23.1621C31.0367 23.1621 30.642 23.3256 30.351 23.6166C30.06 23.9076 29.8965 24.3023 29.8965 24.7138V27.8173L22.3963 20.3172C22.2605 20.1813 22.0992 20.0736 21.9217 20C21.7442 19.9265 21.554 19.8887 21.3618 19.8887C21.1697 19.8887 20.9795 19.9265 20.802 20C20.6245 20.0736 20.4632 20.1813 20.3273 20.3172C20.1915 20.453 20.0837 20.6143 20.0102 20.7918C19.9366 20.9693 19.8988 21.1596 19.8988 21.3517C19.8988 21.5438 19.9366 21.7341 20.0102 21.9116C20.0837 22.0891 20.1915 22.2503 20.3273 22.3862L27.8275 29.8864H24.724C24.3124 29.8864 23.9177 30.0498 23.6267 30.3409C23.3357 30.6319 23.1722 31.0266 23.1722 31.4381C23.1722 31.8497 23.3357 32.2444 23.6267 32.5354C23.9177 32.8264 24.3124 32.9899 24.724 32.9899H31.4482C31.8598 32.9899 32.2545 32.8264 32.5455 32.5354C32.8365 32.2444 33 31.8497 33 31.4381V24.7138C33 24.3023 32.8365 23.9076 32.5455 23.6166C32.2545 23.3256 31.8598 23.1621 31.4482 23.1621Z" fill="white"/>
</g>
</g>
<defs>
<filter id="filter0_d_6541_137656" x="2" y="3" width="32" height="31.9902" filterUnits="userSpaceOnUse" color-interpolation-filters="sRGB">
<feFlood flood-opacity="0" result="BackgroundImageFix"/>
<feColorMatrix in="SourceAlpha" type="matrix" values="0 0 0 0 0 0 0 0 0 0 0 0 0 0 0 0 0 0 127 0" result="hardAlpha"/>
<feOffset dy="1"/>
<feGaussianBlur stdDeviation="0.5"/>
<feComposite in2="hardAlpha" operator="out"/>
<feColorMatrix type="matrix" values="0 0 0 0 0 0 0 0 0 0 0 0 0 0 0 0 0 0 0.25 0"/>
<feBlend mode="normal" in2="BackgroundImageFix" result="effect1_dropShadow_6541_137656"/>
<feBlend mode="normal" in="SourceGraphic" in2="effect1_dropShadow_6541_137656" result="shape"/>
</filter>
</defs>
</svg>
