<svg width="30" height="29" viewBox="0 0 30 29" fill="none" xmlns="http://www.w3.org/2000/svg">
<path fill-rule="evenodd" clip-rule="evenodd" d="M20.775 0.000239508C21.7215 0.000239508 22.6665 0.133739 23.565 0.435239C29.1015 2.23524 31.0965 8.31024 29.43 13.6202C28.485 16.3337 26.94 18.8102 24.9165 20.8337C22.02 23.6387 18.8415 26.1287 15.42 28.2737L15.045 28.5002L14.655 28.2587C11.2215 26.1287 8.02502 23.6387 5.10152 20.8187C3.09152 18.7952 1.54502 16.3337 0.585025 13.6202C-1.10998 8.31024 0.885025 2.23524 6.48152 0.403739C6.91653 0.253739 7.36503 0.14874 7.81502 0.0902395H7.99502C8.41652 0.0287395 8.83502 0.000239508 9.25502 0.000239508H9.42002C10.365 0.0287395 11.28 0.193739 12.1665 0.495239H12.255C12.315 0.523739 12.36 0.555239 12.39 0.583739C12.7215 0.690239 13.035 0.810239 13.335 0.975239L13.905 1.23024C14.0428 1.3037 14.1974 1.41594 14.331 1.51295C14.4156 1.57441 14.4918 1.62975 14.55 1.66524C14.5745 1.67968 14.5994 1.6942 14.6245 1.70884C14.7531 1.78392 14.8871 1.86213 15 1.94874C16.6665 0.675239 18.69 -0.0147605 20.775 0.000239508ZM24.765 10.8002C25.38 10.7837 25.905 10.2902 25.95 9.65874V9.48024C25.995 7.37874 24.7215 5.47524 22.785 4.74024C22.17 4.52874 21.495 4.86024 21.27 5.49024C21.06 6.12024 21.39 6.81024 22.02 7.03374C22.9815 7.39374 23.625 8.34024 23.625 9.38874V9.43524C23.5965 9.77874 23.7 10.1102 23.91 10.3652C24.12 10.6202 24.435 10.7687 24.765 10.8002Z" fill="url(#paint0_linear_6098_142961)"/>
<defs>
<linearGradient id="paint0_linear_6098_142961" x1="27.5457" y1="22.8002" x2="1.46995" y2="-5.87102" gradientUnits="userSpaceOnUse">
<stop stop-color="#E40076"/>
<stop offset="1" stop-color="#FF6FB9"/>
</linearGradient>
</defs>
</svg>
