<svg width="13" height="20" viewBox="0 0 13 20" fill="none" xmlns="http://www.w3.org/2000/svg">
    <path
        d="M6.5 0C2.91588 0 0 2.91938 0 6.50781C0 7.65644 0.303112 8.78571 0.876538 9.77351C1.01022 10.0038 1.15965 10.2282 1.32076 10.4406L6.21758 17H6.78239L11.6792 10.4406C11.8403 10.2282 11.9897 10.0038 12.1235 9.77354C12.6969 8.78571 13 7.65644 13 6.50781C13 2.91938 10.0841 0 6.5 0ZM6.5 8.66602C5.3114 8.66602 4.34439 7.69785 4.34439 6.50781C4.34439 5.31778 5.3114 4.34961 6.5 4.34961C7.6886 4.34961 8.65561 5.31778 8.65561 6.50781C8.65561 7.69785 7.6886 8.66602 6.5 8.66602Z"
        fill="white" />
</svg>
